<?xml version="1.0" encoding="UTF-8" standalone="no"?>
<!DOCTYPE svg PUBLIC "-//W3C//DTD SVG 1.1//EN"
 "http://www.w3.org/Graphics/SVG/1.1/DTD/svg11.dtd">
<!-- Generated by graphviz version 2.46.0 (20210119.1425)
 -->
<!-- Title: dependencies Pages: 1 -->
<svg width="1707pt" height="284pt"
 viewBox="0.00 0.00 1707.00 284.00" xmlns="http://www.w3.org/2000/svg" xmlns:xlink="http://www.w3.org/1999/xlink">
<g id="graph0" class="graph" transform="scale(1 1) rotate(0) translate(4 280)">
<title>dependencies</title>
<polygon fill="white" stroke="transparent" points="-4,4 -4,-280 1703,-280 1703,4 -4,4"/>
<text text-anchor="start" x="828.51" y="-42.4" font-family="sans-serif" font-weight="bold" font-size="14.00">Legend</text>
<polygon fill="#ffffb3" stroke="transparent" points="615.5,-10 615.5,-30 635.5,-30 635.5,-10 615.5,-10"/>
<text text-anchor="start" x="639.13" y="-15.4" font-family="sans-serif" font-size="14.00"> &#160;Declarations</text>
<polygon fill="#8dd3c7" stroke="transparent" points="728.5,-10 728.5,-30 748.5,-30 748.5,-10 728.5,-10"/>
<text text-anchor="start" x="752.23" y="-15.4" font-family="sans-serif" font-size="14.00"> &#160;Module</text>
<polygon fill="#80b1d3" stroke="transparent" points="814.5,-10 814.5,-30 834.5,-30 834.5,-10 814.5,-10"/>
<text text-anchor="start" x="838.28" y="-15.4" font-family="sans-serif" font-size="14.00"> &#160;Bootstrap</text>
<polygon fill="#fdb462" stroke="transparent" points="911.5,-10 911.5,-30 931.5,-30 931.5,-10 911.5,-10"/>
<text text-anchor="start" x="935.17" y="-15.4" font-family="sans-serif" font-size="14.00"> &#160;Providers</text>
<polygon fill="#fb8072" stroke="transparent" points="1007.5,-10 1007.5,-30 1027.5,-30 1027.5,-10 1007.5,-10"/>
<text text-anchor="start" x="1031.23" y="-15.4" font-family="sans-serif" font-size="14.00"> &#160;Exports</text>
<g id="clust1" class="cluster">
<title>cluster_AppModule</title>
<polygon fill="none" stroke="black" stroke-dasharray="1,5" points="8,-70 8,-268 1691,-268 1691,-70 8,-70"/>
</g>
<g id="clust13" class="cluster">
<title>cluster_AppModule_bootstrap</title>
<polygon fill="none" stroke="black" points="772,-208 772,-260 896,-260 896,-208 772,-208"/>
</g>
<g id="clust14" class="cluster">
<title>cluster_AppModule_providers</title>
<polygon fill="none" stroke="black" points="1367,-78 1367,-130 1683,-130 1683,-78 1367,-78"/>
</g>
<g id="clust11" class="cluster">
<title>cluster_AppModule_imports</title>
<polygon fill="none" stroke="black" points="1215,-78 1215,-130 1359,-130 1359,-78 1215,-78"/>
</g>
<g id="clust2" class="cluster">
<title>cluster_AppModule_declarations</title>
<polygon fill="none" stroke="black" points="16,-78 16,-130 1207,-130 1207,-78 16,-78"/>
</g>
<!-- AppComponent -->
<g id="node1" class="node">
<title>AppComponent</title>
<polygon fill="#ffffb3" stroke="black" points="1198.94,-122 1093.06,-122 1093.06,-86 1198.94,-86 1198.94,-122"/>
<text text-anchor="middle" x="1146" y="-99.8" font-family="Times,serif" font-size="14.00">AppComponent</text>
</g>
<!-- AppModule -->
<g id="node9" class="node">
<title>AppModule</title>
<polygon fill="#8dd3c7" stroke="black" points="875.66,-187 872.66,-191 851.66,-191 848.66,-187 792.34,-187 792.34,-151 875.66,-151 875.66,-187"/>
<text text-anchor="middle" x="834" y="-164.8" font-family="Times,serif" font-size="14.00">AppModule</text>
</g>
<!-- AppComponent&#45;&gt;AppModule -->
<g id="edge1" class="edge">
<title>AppComponent&#45;&gt;AppModule</title>
<path fill="none" stroke="black" d="M1146,-122.02C1146,-139.37 1146,-163 1146,-163 1146,-163 885.75,-163 885.75,-163"/>
<polygon fill="black" stroke="black" points="885.75,-159.5 875.75,-163 885.75,-166.5 885.75,-159.5"/>
</g>
<!-- CreateClientComponent -->
<g id="node2" class="node">
<title>CreateClientComponent</title>
<polygon fill="#ffffb3" stroke="black" points="1075.09,-122 922.91,-122 922.91,-86 1075.09,-86 1075.09,-122"/>
<text text-anchor="middle" x="999" y="-99.8" font-family="Times,serif" font-size="14.00">CreateClientComponent</text>
</g>
<!-- CreateClientComponent&#45;&gt;AppModule -->
<g id="edge2" class="edge">
<title>CreateClientComponent&#45;&gt;AppModule</title>
<path fill="none" stroke="black" d="M999,-122.24C999,-137.57 999,-157 999,-157 999,-157 886.06,-157 886.06,-157"/>
<polygon fill="black" stroke="black" points="886.06,-153.5 876.06,-157 886.06,-160.5 886.06,-153.5"/>
</g>
<!-- DashboardComponent -->
<g id="node3" class="node">
<title>DashboardComponent</title>
<polygon fill="#ffffb3" stroke="black" points="904.97,-122 763.03,-122 763.03,-86 904.97,-86 904.97,-122"/>
<text text-anchor="middle" x="834" y="-99.8" font-family="Times,serif" font-size="14.00">DashboardComponent</text>
</g>
<!-- DashboardComponent&#45;&gt;AppModule -->
<g id="edge3" class="edge">
<title>DashboardComponent&#45;&gt;AppModule</title>
<path fill="none" stroke="black" d="M834,-122.11C834,-122.11 834,-140.99 834,-140.99"/>
<polygon fill="black" stroke="black" points="830.5,-140.99 834,-150.99 837.5,-140.99 830.5,-140.99"/>
</g>
<!-- DocumentUploadComponent -->
<g id="node4" class="node">
<title>DocumentUploadComponent</title>
<polygon fill="#ffffb3" stroke="black" points="745.36,-122 564.64,-122 564.64,-86 745.36,-86 745.36,-122"/>
<text text-anchor="middle" x="655" y="-99.8" font-family="Times,serif" font-size="14.00">DocumentUploadComponent</text>
</g>
<!-- DocumentUploadComponent&#45;&gt;AppModule -->
<g id="edge4" class="edge">
<title>DocumentUploadComponent&#45;&gt;AppModule</title>
<path fill="none" stroke="black" d="M655,-122.24C655,-137.57 655,-157 655,-157 655,-157 782.03,-157 782.03,-157"/>
<polygon fill="black" stroke="black" points="782.03,-160.5 792.03,-157 782.03,-153.5 782.03,-160.5"/>
</g>
<!-- DropdownComponent -->
<g id="node5" class="node">
<title>DropdownComponent</title>
<polygon fill="#ffffb3" stroke="black" points="546.71,-122 405.29,-122 405.29,-86 546.71,-86 546.71,-122"/>
<text text-anchor="middle" x="476" y="-99.8" font-family="Times,serif" font-size="14.00">DropdownComponent</text>
</g>
<!-- DropdownComponent&#45;&gt;AppModule -->
<g id="edge5" class="edge">
<title>DropdownComponent&#45;&gt;AppModule</title>
<path fill="none" stroke="black" d="M476,-122.02C476,-139.37 476,-163 476,-163 476,-163 782.23,-163 782.23,-163"/>
<polygon fill="black" stroke="black" points="782.23,-166.5 792.23,-163 782.23,-159.5 782.23,-166.5"/>
</g>
<!-- DualEntryComponent -->
<g id="node6" class="node">
<title>DualEntryComponent</title>
<polygon fill="#ffffb3" stroke="black" points="387.65,-122 248.35,-122 248.35,-86 387.65,-86 387.65,-122"/>
<text text-anchor="middle" x="318" y="-99.8" font-family="Times,serif" font-size="14.00">DualEntryComponent</text>
</g>
<!-- DualEntryComponent&#45;&gt;AppModule -->
<g id="edge6" class="edge">
<title>DualEntryComponent&#45;&gt;AppModule</title>
<path fill="none" stroke="black" d="M318,-122.11C318,-141.34 318,-169 318,-169 318,-169 782.21,-169 782.21,-169"/>
<polygon fill="black" stroke="black" points="782.21,-172.5 792.21,-169 782.21,-165.5 782.21,-172.5"/>
</g>
<!-- SearchPipe -->
<g id="node7" class="node">
<title>SearchPipe</title>
<polygon fill="#ffffb3" stroke="black" points="230.47,-122 151.53,-122 151.53,-86 230.47,-86 230.47,-122"/>
<text text-anchor="middle" x="191" y="-99.8" font-family="Times,serif" font-size="14.00">SearchPipe</text>
</g>
<!-- SearchPipe&#45;&gt;AppModule -->
<g id="edge7" class="edge">
<title>SearchPipe&#45;&gt;AppModule</title>
<path fill="none" stroke="black" d="M191,-122.28C191,-143.32 191,-175 191,-175 191,-175 782.31,-175 782.31,-175"/>
<polygon fill="black" stroke="black" points="782.31,-178.5 792.31,-175 782.31,-171.5 782.31,-178.5"/>
</g>
<!-- TooltipDirective -->
<g id="node8" class="node">
<title>TooltipDirective</title>
<polygon fill="#ffffb3" stroke="black" points="133.81,-122 24.19,-122 24.19,-86 133.81,-86 133.81,-122"/>
<text text-anchor="middle" x="79" y="-99.8" font-family="Times,serif" font-size="14.00">TooltipDirective</text>
</g>
<!-- TooltipDirective&#45;&gt;AppModule -->
<g id="edge8" class="edge">
<title>TooltipDirective&#45;&gt;AppModule</title>
<path fill="none" stroke="black" d="M79,-122.25C79,-145.02 79,-181 79,-181 79,-181 782.33,-181 782.33,-181"/>
<polygon fill="black" stroke="black" points="782.33,-184.5 792.33,-181 782.33,-177.5 782.33,-184.5"/>
</g>
<!-- AppComponent  -->
<g id="node11" class="node">
<title>AppComponent </title>
<polygon fill="#80b1d3" stroke="black" points="888.44,-252 779.56,-252 779.56,-216 888.44,-216 888.44,-252"/>
<text text-anchor="middle" x="834" y="-229.8" font-family="Times,serif" font-size="14.00">AppComponent </text>
</g>
<!-- AppModule&#45;&gt;AppComponent  -->
<g id="edge10" class="edge">
<title>AppModule&#45;&gt;AppComponent </title>
<path fill="none" stroke="black" stroke-dasharray="1,5" d="M834,-187.11C834,-187.11 834,-205.99 834,-205.99"/>
<polygon fill="black" stroke="black" points="830.5,-205.99 834,-215.99 837.5,-205.99 830.5,-205.99"/>
</g>
<!-- AppRoutingModule -->
<g id="node10" class="node">
<title>AppRoutingModule</title>
<polygon fill="#8dd3c7" stroke="black" points="1351.27,-122 1348.27,-126 1327.27,-126 1324.27,-122 1222.73,-122 1222.73,-86 1351.27,-86 1351.27,-122"/>
<text text-anchor="middle" x="1287" y="-99.8" font-family="Times,serif" font-size="14.00">AppRoutingModule</text>
</g>
<!-- AppRoutingModule&#45;&gt;AppModule -->
<g id="edge9" class="edge">
<title>AppRoutingModule&#45;&gt;AppModule</title>
<path fill="none" stroke="black" d="M1287,-122.11C1287,-141.34 1287,-169 1287,-169 1287,-169 885.81,-169 885.81,-169"/>
<polygon fill="black" stroke="black" points="885.81,-165.5 875.81,-169 885.81,-172.5 885.81,-165.5"/>
</g>
<!-- ErrorInterceptor -->
<g id="node12" class="node">
<title>ErrorInterceptor</title>
<ellipse fill="#fdb462" stroke="black" cx="1601" cy="-104" rx="73.53" ry="18"/>
<text text-anchor="middle" x="1601" y="-99.8" font-family="Times,serif" font-size="14.00">ErrorInterceptor</text>
</g>
<!-- ErrorInterceptor&#45;&gt;AppModule -->
<g id="edge11" class="edge">
<title>ErrorInterceptor&#45;&gt;AppModule</title>
<path fill="none" stroke="black" d="M1601,-122.25C1601,-145.02 1601,-181 1601,-181 1601,-181 885.78,-181 885.78,-181"/>
<polygon fill="black" stroke="black" points="885.78,-177.5 875.78,-181 885.78,-184.5 885.78,-177.5"/>
</g>
<!-- JwtInterceptor -->
<g id="node13" class="node">
<title>JwtInterceptor</title>
<ellipse fill="#fdb462" stroke="black" cx="1442" cy="-104" rx="66.61" ry="18"/>
<text text-anchor="middle" x="1442" y="-99.8" font-family="Times,serif" font-size="14.00">JwtInterceptor</text>
</g>
<!-- JwtInterceptor&#45;&gt;AppModule -->
<g id="edge12" class="edge">
<title>JwtInterceptor&#45;&gt;AppModule</title>
<path fill="none" stroke="black" d="M1442,-122.28C1442,-143.32 1442,-175 1442,-175 1442,-175 885.79,-175 885.79,-175"/>
<polygon fill="black" stroke="black" points="885.79,-171.5 875.79,-175 885.79,-178.5 885.79,-171.5"/>
</g>
</g>
</svg>
