<?xml version="1.0" encoding="UTF-8" standalone="no"?>
<!DOCTYPE svg PUBLIC "-//W3C//DTD SVG 1.1//EN"
 "http://www.w3.org/Graphics/SVG/1.1/DTD/svg11.dtd">
<!-- Generated by graphviz version 2.46.0 (20210119.1425)
 -->
<!-- Title: dependencies Pages: 1 -->
<svg width="1707pt" height="284pt"
 viewBox="0.00 0.00 1707.00 284.00" xmlns="http://www.w3.org/2000/svg" xmlns:xlink="http://www.w3.org/1999/xlink">
<g id="graph0" class="graph" transform="scale(1 1) rotate(0) translate(4 280)">
<title>dependencies</title>
<polygon fill="white" stroke="transparent" points="-4,4 -4,-280 1703,-280 1703,4 -4,4"/>
<text text-anchor="start" x="828.51" y="-42.4" font-family="sans-serif" font-weight="bold" font-size="14.00">Legend</text>
<polygon fill="#ffffb3" stroke="transparent" points="615.5,-10 615.5,-30 635.5,-30 635.5,-10 615.5,-10"/>
<text text-anchor="start" x="639.13" y="-15.4" font-family="sans-serif" font-size="14.00"> &#160;Declarations</text>
<polygon fill="#8dd3c7" stroke="transparent" points="728.5,-10 728.5,-30 748.5,-30 748.5,-10 728.5,-10"/>
<text text-anchor="start" x="752.23" y="-15.4" font-family="sans-serif" font-size="14.00"> &#160;Module</text>
<polygon fill="#80b1d3" stroke="transparent" points="814.5,-10 814.5,-30 834.5,-30 834.5,-10 814.5,-10"/>
<text text-anchor="start" x="838.28" y="-15.4" font-family="sans-serif" font-size="14.00"> &#160;Bootstrap</text>
<polygon fill="#fdb462" stroke="transparent" points="911.5,-10 911.5,-30 931.5,-30 931.5,-10 911.5,-10"/>
<text text-anchor="start" x="935.17" y="-15.4" font-family="sans-serif" font-size="14.00"> &#160;Providers</text>
<polygon fill="#fb8072" stroke="transparent" points="1007.5,-10 1007.5,-30 1027.5,-30 1027.5,-10 1007.5,-10"/>
<text text-anchor="start" x="1031.23" y="-15.4" font-family="sans-serif" font-size="14.00"> &#160;Exports</text>
<g id="clust1" class="cluster">
<title>cluster_AppModule</title>
<polygon fill="none" stroke="black" stroke-dasharray="1,5" points="8,-70 8,-268 1691,-268 1691,-70 8,-70"/>
</g>
<g id="clust2" class="cluster">
<title>cluster_AppModule_declarations</title>
<polygon fill="none" stroke="black" points="492,-78 492,-130 1683,-130 1683,-78 492,-78"/>
</g>
<g id="clust11" class="cluster">
<title>cluster_AppModule_imports</title>
<polygon fill="none" stroke="black" points="340,-78 340,-130 484,-130 484,-78 340,-78"/>
</g>
<g id="clust13" class="cluster">
<title>cluster_AppModule_bootstrap</title>
<polygon fill="none" stroke="black" points="732,-208 732,-260 856,-260 856,-208 732,-208"/>
</g>
<g id="clust14" class="cluster">
<title>cluster_AppModule_providers</title>
<polygon fill="none" stroke="black" points="16,-78 16,-130 332,-130 332,-78 16,-78"/>
</g>
<!-- AppComponent -->
<g id="node1" class="node">
<title>AppComponent</title>
<polygon fill="#ffffb3" stroke="black" points="1674.94,-122 1569.06,-122 1569.06,-86 1674.94,-86 1674.94,-122"/>
<text text-anchor="middle" x="1622" y="-99.8" font-family="Times,serif" font-size="14.00">AppComponent</text>
</g>
<!-- AppModule -->
<g id="node9" class="node">
<title>AppModule</title>
<polygon fill="#8dd3c7" stroke="black" points="835.66,-187 832.66,-191 811.66,-191 808.66,-187 752.34,-187 752.34,-151 835.66,-151 835.66,-187"/>
<text text-anchor="middle" x="794" y="-164.8" font-family="Times,serif" font-size="14.00">AppModule</text>
</g>
<!-- AppComponent&#45;&gt;AppModule -->
<g id="edge1" class="edge">
<title>AppComponent&#45;&gt;AppModule</title>
<path fill="none" stroke="black" d="M1622,-122.25C1622,-145.02 1622,-181 1622,-181 1622,-181 845.91,-181 845.91,-181"/>
<polygon fill="black" stroke="black" points="845.91,-177.5 835.91,-181 845.91,-184.5 845.91,-177.5"/>
</g>
<!-- CreateClientComponent -->
<g id="node2" class="node">
<title>CreateClientComponent</title>
<polygon fill="#ffffb3" stroke="black" points="1551.09,-122 1398.91,-122 1398.91,-86 1551.09,-86 1551.09,-122"/>
<text text-anchor="middle" x="1475" y="-99.8" font-family="Times,serif" font-size="14.00">CreateClientComponent</text>
</g>
<!-- CreateClientComponent&#45;&gt;AppModule -->
<g id="edge2" class="edge">
<title>CreateClientComponent&#45;&gt;AppModule</title>
<path fill="none" stroke="black" d="M1475,-122.28C1475,-143.32 1475,-175 1475,-175 1475,-175 845.83,-175 845.83,-175"/>
<polygon fill="black" stroke="black" points="845.83,-171.5 835.83,-175 845.83,-178.5 845.83,-171.5"/>
</g>
<!-- DashboardComponent -->
<g id="node3" class="node">
<title>DashboardComponent</title>
<polygon fill="#ffffb3" stroke="black" points="1380.97,-122 1239.03,-122 1239.03,-86 1380.97,-86 1380.97,-122"/>
<text text-anchor="middle" x="1310" y="-99.8" font-family="Times,serif" font-size="14.00">DashboardComponent</text>
</g>
<!-- DashboardComponent&#45;&gt;AppModule -->
<g id="edge3" class="edge">
<title>DashboardComponent&#45;&gt;AppModule</title>
<path fill="none" stroke="black" d="M1310,-122.11C1310,-141.34 1310,-169 1310,-169 1310,-169 845.79,-169 845.79,-169"/>
<polygon fill="black" stroke="black" points="845.79,-165.5 835.79,-169 845.79,-172.5 845.79,-165.5"/>
</g>
<!-- DocumentUploadComponent -->
<g id="node4" class="node">
<title>DocumentUploadComponent</title>
<polygon fill="#ffffb3" stroke="black" points="1221.36,-122 1040.64,-122 1040.64,-86 1221.36,-86 1221.36,-122"/>
<text text-anchor="middle" x="1131" y="-99.8" font-family="Times,serif" font-size="14.00">DocumentUploadComponent</text>
</g>
<!-- DocumentUploadComponent&#45;&gt;AppModule -->
<g id="edge4" class="edge">
<title>DocumentUploadComponent&#45;&gt;AppModule</title>
<path fill="none" stroke="black" d="M1131,-122.02C1131,-139.37 1131,-163 1131,-163 1131,-163 845.66,-163 845.66,-163"/>
<polygon fill="black" stroke="black" points="845.66,-159.5 835.66,-163 845.66,-166.5 845.66,-159.5"/>
</g>
<!-- DropdownComponent -->
<g id="node5" class="node">
<title>DropdownComponent</title>
<polygon fill="#ffffb3" stroke="black" points="1022.71,-122 881.29,-122 881.29,-86 1022.71,-86 1022.71,-122"/>
<text text-anchor="middle" x="952" y="-99.8" font-family="Times,serif" font-size="14.00">DropdownComponent</text>
</g>
<!-- DropdownComponent&#45;&gt;AppModule -->
<g id="edge5" class="edge">
<title>DropdownComponent&#45;&gt;AppModule</title>
<path fill="none" stroke="black" d="M952,-122.24C952,-137.57 952,-157 952,-157 952,-157 845.93,-157 845.93,-157"/>
<polygon fill="black" stroke="black" points="845.93,-153.5 835.93,-157 845.93,-160.5 845.93,-153.5"/>
</g>
<!-- DualEntryComponent -->
<g id="node6" class="node">
<title>DualEntryComponent</title>
<polygon fill="#ffffb3" stroke="black" points="863.65,-122 724.35,-122 724.35,-86 863.65,-86 863.65,-122"/>
<text text-anchor="middle" x="794" y="-99.8" font-family="Times,serif" font-size="14.00">DualEntryComponent</text>
</g>
<!-- DualEntryComponent&#45;&gt;AppModule -->
<g id="edge6" class="edge">
<title>DualEntryComponent&#45;&gt;AppModule</title>
<path fill="none" stroke="black" d="M794,-122.11C794,-122.11 794,-140.99 794,-140.99"/>
<polygon fill="black" stroke="black" points="790.5,-140.99 794,-150.99 797.5,-140.99 790.5,-140.99"/>
</g>
<!-- SearchPipe -->
<g id="node7" class="node">
<title>SearchPipe</title>
<polygon fill="#ffffb3" stroke="black" points="706.47,-122 627.53,-122 627.53,-86 706.47,-86 706.47,-122"/>
<text text-anchor="middle" x="667" y="-99.8" font-family="Times,serif" font-size="14.00">SearchPipe</text>
</g>
<!-- SearchPipe&#45;&gt;AppModule -->
<g id="edge7" class="edge">
<title>SearchPipe&#45;&gt;AppModule</title>
<path fill="none" stroke="black" d="M667,-122.24C667,-137.57 667,-157 667,-157 667,-157 742.06,-157 742.06,-157"/>
<polygon fill="black" stroke="black" points="742.06,-160.5 752.06,-157 742.06,-153.5 742.06,-160.5"/>
</g>
<!-- TooltipDirective -->
<g id="node8" class="node">
<title>TooltipDirective</title>
<polygon fill="#ffffb3" stroke="black" points="609.81,-122 500.19,-122 500.19,-86 609.81,-86 609.81,-122"/>
<text text-anchor="middle" x="555" y="-99.8" font-family="Times,serif" font-size="14.00">TooltipDirective</text>
</g>
<!-- TooltipDirective&#45;&gt;AppModule -->
<g id="edge8" class="edge">
<title>TooltipDirective&#45;&gt;AppModule</title>
<path fill="none" stroke="black" d="M555,-122.02C555,-139.37 555,-163 555,-163 555,-163 742.1,-163 742.1,-163"/>
<polygon fill="black" stroke="black" points="742.1,-166.5 752.1,-163 742.1,-159.5 742.1,-166.5"/>
</g>
<!-- AppComponent  -->
<g id="node11" class="node">
<title>AppComponent </title>
<polygon fill="#80b1d3" stroke="black" points="848.44,-252 739.56,-252 739.56,-216 848.44,-216 848.44,-252"/>
<text text-anchor="middle" x="794" y="-229.8" font-family="Times,serif" font-size="14.00">AppComponent </text>
</g>
<!-- AppModule&#45;&gt;AppComponent  -->
<g id="edge10" class="edge">
<title>AppModule&#45;&gt;AppComponent </title>
<path fill="none" stroke="black" stroke-dasharray="1,5" d="M794,-187.11C794,-187.11 794,-205.99 794,-205.99"/>
<polygon fill="black" stroke="black" points="790.5,-205.99 794,-215.99 797.5,-205.99 790.5,-205.99"/>
</g>
<!-- AppRoutingModule -->
<g id="node10" class="node">
<title>AppRoutingModule</title>
<polygon fill="#8dd3c7" stroke="black" points="476.27,-122 473.27,-126 452.27,-126 449.27,-122 347.73,-122 347.73,-86 476.27,-86 476.27,-122"/>
<text text-anchor="middle" x="412" y="-99.8" font-family="Times,serif" font-size="14.00">AppRoutingModule</text>
</g>
<!-- AppRoutingModule&#45;&gt;AppModule -->
<g id="edge9" class="edge">
<title>AppRoutingModule&#45;&gt;AppModule</title>
<path fill="none" stroke="black" d="M412,-122.11C412,-141.34 412,-169 412,-169 412,-169 742.03,-169 742.03,-169"/>
<polygon fill="black" stroke="black" points="742.03,-172.5 752.03,-169 742.03,-165.5 742.03,-172.5"/>
</g>
<!-- ErrorInterceptor -->
<g id="node12" class="node">
<title>ErrorInterceptor</title>
<ellipse fill="#fdb462" stroke="black" cx="250" cy="-104" rx="73.53" ry="18"/>
<text text-anchor="middle" x="250" y="-99.8" font-family="Times,serif" font-size="14.00">ErrorInterceptor</text>
</g>
<!-- ErrorInterceptor&#45;&gt;AppModule -->
<g id="edge11" class="edge">
<title>ErrorInterceptor&#45;&gt;AppModule</title>
<path fill="none" stroke="black" d="M250,-122.28C250,-143.32 250,-175 250,-175 250,-175 742.22,-175 742.22,-175"/>
<polygon fill="black" stroke="black" points="742.22,-178.5 752.22,-175 742.22,-171.5 742.22,-178.5"/>
</g>
<!-- JwtInterceptor -->
<g id="node13" class="node">
<title>JwtInterceptor</title>
<ellipse fill="#fdb462" stroke="black" cx="91" cy="-104" rx="66.61" ry="18"/>
<text text-anchor="middle" x="91" y="-99.8" font-family="Times,serif" font-size="14.00">JwtInterceptor</text>
</g>
<!-- JwtInterceptor&#45;&gt;AppModule -->
<g id="edge12" class="edge">
<title>JwtInterceptor&#45;&gt;AppModule</title>
<path fill="none" stroke="black" d="M91,-122.25C91,-145.02 91,-181 91,-181 91,-181 742.13,-181 742.13,-181"/>
<polygon fill="black" stroke="black" points="742.13,-184.5 752.13,-181 742.13,-177.5 742.13,-184.5"/>
</g>
</g>
</svg>
